<?xml version="1.0" encoding="UTF-8"?><!DOCTYPE svg PUBLIC "-//W3C//DTD SVG 1.1//EN" "http://www.w3.org/Graphics/SVG/1.1/DTD/svg11.dtd"><svg xmlns="http://www.w3.org/2000/svg" xmlns:xlink="http://www.w3.org/1999/xlink"><defs>
        <path id="a" d="M1370 636.37l-1.38-1.37-10.63 10.63-10.62-10.63-1.38 1.37 10.63 10.63-10.63 10.63 1.38 1.37 10.62-10.63 10.63 10.63 1.37-1.37-10.62-10.63z"/>
    </defs><symbol id="icon-close" viewBox="0 0 24 24">
    
    <use xlink:href="#a" transform="translate(-1346 -635)"/>
</symbol><symbol id="icon-remove" viewBox="0 0 443 443">
    <path d="M321.785 38h-83.384V0H125.169v38H41.785v60h280V38zm-166.616-8h53.232v8h-53.232v-8z"/>
    <path d="M295.142 214.31l5.66-86.31H62.769l19.016 290h114.172c-14.861-21.067-23.602-46.746-23.602-74.43 0-69.14 54.494-125.791 122.787-129.26z"/>
    <path d="M301.785 244.141c-54.826 0-99.43 44.604-99.43 99.429S246.959 443 301.785 443s99.43-44.604 99.43-99.43-44.604-99.429-99.43-99.429zm54.176 132.392l-21.213 21.213-32.963-32.963-32.963 32.963-21.213-21.213 32.963-32.963-32.963-32.963 21.213-21.213 32.963 32.963 32.963-32.963 21.213 21.213-32.963 32.963 32.963 32.963z"/>
</symbol><symbol id="icon-sld-arr-l" viewBox="0 0 451.847 451.847">
    <path d="M97.141 225.92c0-8.095 3.091-16.192 9.259-22.366L300.689 9.27c12.359-12.359 32.397-12.359 44.751 0 12.354 12.354 12.354 32.388 0 44.748L173.525 225.92l171.903 171.909c12.354 12.354 12.354 32.391 0 44.744-12.354 12.365-32.386 12.365-44.745 0l-194.29-194.281c-6.167-6.177-9.252-14.274-9.252-22.372z"/>
</symbol><symbol id="icon-sld-arr-r" viewBox="0 0 451.846 451.847">
    <path d="M345.441 248.292L151.154 442.573c-12.359 12.365-32.397 12.365-44.75 0-12.354-12.354-12.354-32.391 0-44.744L278.318 225.92 106.409 54.017c-12.354-12.359-12.354-32.394 0-44.748 12.354-12.359 32.391-12.359 44.75 0l194.287 194.284c6.177 6.18 9.262 14.271 9.262 22.366 0 8.099-3.091 16.196-9.267 22.373z"/>
</symbol></svg>